<svg xmlns="http://www.w3.org/2000/svg" width="1180" height="640" viewBox="0 0 1180 640"><rect width="100%" height="100%" fill="#fafaf7"/><text x="35" y="50" font-family="Arial" font-size="24">Exit Distance Miss Profile</text><polyline points="80,530 87,530 95,530 103,101 110,176 118,461 126,489 134,522 141,514 149,530 157,530 164,530 172,530 180,530 188,530 195,530 203,530 211,530 218,530 226,530 234,530 242,530 249,530 257,530 265,530 272,530 280,530 288,530 296,530 303,530 311,530 319,530 326,530 334,530 342,530 350,530 357,530 365,530 373,530 380,530 388,530 396,530 404,530 411,530 419,530 427,530 434,530 442,530 450,530 458,530 465,530 473,530 481,530 488,530 496,530 504,530 512,530 519,530 527,530 535,530 542,530 550,530 558,530 566,530 573,530 581,530 589,530 597,530 604,530 612,530 620,530 627,530 635,530 643,530 651,530 658,530 666,530 674,530 681,530 689,530 697,530 705,530 712,530 720,530 728,530 735,530 743,530 751,530 759,530 766,530 774,530 782,530 789,530 797,530 805,530 813,530 820,530 828,530 836,530 843,530 851,530 859,530 867,530 874,530 882,530 890,530 897,530 905,530 913,530 921,530 928,530 936,530 944,530 951,530 959,530 967,530 975,530 982,530 990,530 998,530 1005,530 1013,530 1021,530 1029,530 1036,530 1044,530 1052,530 1060,530" fill="none" stroke="#b84a4a" stroke-width="3"/><polyline points="80,530 87,530 95,530 103,100 110,266 118,464 126,509 134,523 141,516 149,530 157,530 164,530 172,530 180,530 188,530 195,530 203,530 211,530 218,530 226,530 234,530 242,530 249,530 257,530 265,530 272,530 280,530 288,530 296,530 303,530 311,530 319,530 326,530 334,530 342,530 350,530 357,530 365,530 373,530 380,530 388,530 396,530 404,530 411,530 419,530 427,530 434,530 442,530 450,530 458,530 465,530 473,530 481,530 488,530 496,530 504,530 512,530 519,530 527,530 535,530 542,530 550,530 558,530 566,530 573,530 581,530 589,530 597,530 604,530 612,530 620,530 627,530 635,530 643,530 651,530 658,530 666,530 674,530 681,530 689,530 697,530 705,530 712,530 720,530 728,530 735,530 743,530 751,530 759,530 766,530 774,530 782,530 789,530 797,530 805,530 813,530 820,530 828,530 836,530 843,530 851,530 859,530 867,530 874,530 882,530 890,530 897,530 905,530 913,530 921,530 928,530 936,530 944,530 951,530 959,530 967,530 975,530 982,530 990,530 998,530 1005,530 1013,530 1021,530 1029,530 1036,530 1044,530 1052,530 1060,530" fill="none" stroke="#4a77b8" stroke-width="2"/></svg>